<svg width="60" height="60" viewBox="0 0 60 60" fill="none" xmlns="http://www.w3.org/2000/svg">
<path d="M16.6667 24.1333C15.2 25.7333 15.3333 26.5333 17.0667 28.4C19.2 30.4 19.4667 30.4 21.6 28.4C23.3333 26.5333 23.4667 25.7333 22 24.1333C21.0667 22.9333 19.8667 22 19.3333 22C18.8 22 17.6 22.9333 16.6667 24.1333Z" fill="black"/>
<path d="M37.6 22.8C36 24.4 36.5333 28.4 38.4 29.0667C41.2 30.1333 43.6 28 43.0667 25.2C42.6667 22.6667 39.2 21.2 37.6 22.8Z" fill="black"/>
<path d="M15.1343 37.498C16.0676 40.0313 24.6009 43.898 29.5343 43.898C34.4676 43.898 43.0009 40.0313 43.9343 37.498C44.6009 35.2313 42.8676 35.498 36.8676 38.5646C33.9343 40.0313 31.2401 41.2313 29.5343 41.2313C27.7401 41.2313 25.1343 40.0313 22.2009 38.5646C16.2009 35.498 14.4676 35.2313 15.1343 37.498Z" fill="black"/>
<path d="M16.3 3.50303C-5.43333 14.5697 -5.43333 45.2364 16.3 56.1697C26.0333 61.103 33.7667 61.103 43.2333 56.1697C65.2333 44.703 64.8333 13.503 42.5667 3.10303C33.3667 -1.16364 25.5 -1.0303 16.3 3.50303ZM41.5 6.70303C59.7667 15.6364 59.7667 44.1697 41.5 53.103C17.9 64.4364 -5.83333 38.4364 7.9 16.303C15.1 4.70303 29.1 0.703032 41.5 6.70303Z" fill="black"/>
</svg>
