<svg width="60" height="60" viewBox="0 0 60 60" fill="none" xmlns="http://www.w3.org/2000/svg">
<path d="M16.6667 25.1333C15.2 26.7333 15.3333 27.5333 17.0667 29.4C19.2 31.4 19.4667 31.4 21.6 29.4C23.3333 27.5333 23.4667 26.7333 22 25.1333C21.0667 23.9333 19.8667 23 19.3333 23C18.8 23 17.6 23.9333 16.6667 25.1333Z" fill="black"/>
<path d="M37.6 23.8C36 25.4 36.5333 29.4 38.4 30.0667C41.2 31.1333 43.6 29 43.0667 26.2C42.6667 23.6667 39.2 22.2 37.6 23.8Z" fill="black"/>
<path d="M19.7333 39.6667C17.3333 40.7333 15.3333 42.2 15.3333 43.1333C15.3333 44.0667 16.2667 44.2 17.7333 43.6667C26.6667 39.9333 33.3333 39.9333 42.4 43.6667C43.7333 44.2 44.6667 44.0667 44.6667 43.1333C44.6667 38.4667 27.7333 36.2 19.7333 39.6667Z" fill="black"/>
<path d="M16.3 3.50303C-5.43333 14.5697 -5.43333 45.2364 16.3 56.1697C26.0333 61.103 33.7667 61.103 43.2333 56.1697C65.2333 44.703 64.8333 13.503 42.5667 3.10303C33.3667 -1.16364 25.5 -1.0303 16.3 3.50303ZM41.5 6.70303C59.7667 15.6364 59.7667 44.1697 41.5 53.103C17.9 64.4364 -5.83333 38.4364 7.9 16.303C15.1 4.70303 29.1 0.703032 41.5 6.70303Z" fill="black"/>
</svg>
