<svg width="60" height="61" viewBox="0 0 60 61" fill="none" xmlns="http://www.w3.org/2000/svg">
<path d="M16.5333 3.93331C-5.2 15 -5.2 45.6666 16.5333 56.6C26.2667 61.5333 34 61.5333 43.4667 56.6C65.4667 45.1333 65.0667 13.9333 42.8 3.53331C33.6 -0.733353 25.7333 -0.600019 16.5333 3.93331ZM41.7333 7.13331C60 16.0666 60 44.6 41.7333 53.5333C18.1333 64.8667 -5.6 38.8666 8.13333 16.7333C15.3333 5.13331 29.3333 1.13331 41.7333 7.13331Z" fill="black"/>
<path d="M12.6667 18.7333C12.6667 19.4 15.6 21 19.2 22.2C26.9333 24.7333 27.3333 24.7333 27.3333 23C27.3333 22.3333 24.9333 21.1333 21.8667 20.3333C18.9333 19.5333 15.6 18.4666 14.5333 18.0666C13.4667 17.6666 12.6667 17.9333 12.6667 18.7333Z" fill="black"/>
<path d="M38.8 19.9333C35.2 21 32.9333 22.4667 33.4667 23C34.8 24.3333 47.3333 20.6 47.3333 18.8667C47.3333 17.4 46.9333 17.4 38.8 19.9333Z" fill="black"/>
<path d="M16.8 24.7333C15.7333 26.0667 15.8667 27.2667 17.3333 29.1333C19.0667 31.5333 19.3333 31.5333 21.4667 29.4C23.3333 27.5333 23.4667 26.7333 22 25.1333C20 22.6 18.8 22.4667 16.8 24.7333Z" fill="black"/>
<path d="M38 25.1333C36.5333 26.7333 36.6667 27.5333 38.4 29.2667C41.3333 32.3333 45.3333 29.2667 43.2 25.5333C41.6 22.4667 40.2667 22.3333 38 25.1333Z" fill="black"/>
<path d="M20.8 38.4667C18.5333 40.3333 17.0667 42.4667 17.4667 43.2667C17.8667 43.9333 19.7333 43.2667 21.6 41.4C26 37.2667 34.6667 37.2667 38 41.4C40.4 44.3333 43.3333 45.2667 43.3333 43.1333C43.3333 42.4667 41.4667 40.3333 39.2 38.4667C33.6 33.8 26.4 33.8 20.8 38.4667Z" fill="black"/>
</svg>
